<?xml version="1.0" encoding="utf-8"?>
<!-- Uploaded to: SVG Repo, www.svgrepo.com, Generator: SVG Repo Mixer Tools -->
<svg fill="#000000" width="800px" height="800px" viewBox="0 0 32 32" version="1.1" xmlns="http://www.w3.org/2000/svg">
<title>taurus</title>
<path d="M1.927 1.88c0 0 2.092-0.674 5.746 1.226 3.806 1.979 5.343 7.286 8.293 7.354 2.95-0.068 4.488-5.375 8.293-7.354 3.654-1.9 5.746-1.226 5.746-1.226v5.334c0 0-2.375-0.153-3.677 0.843-0.946 0.723-2.822 3.388-4.454 4.997 2.425 1.737 3.991 4.485 3.991 7.578 0 5.252-4.514 9.509-10.083 9.509s-10.083-4.257-10.083-9.509c0-3.184 1.66-6.003 4.208-7.729-1.595-1.62-3.386-4.145-4.303-4.846-1.303-0.996-3.678-0.843-3.678-0.843v-5.334zM11.197 20.622c0 2.496 2.058 4.52 4.597 4.52s4.597-2.024 4.597-4.52-2.058-4.52-4.597-4.52-4.597 2.024-4.597 4.52z"></path>
</svg>